<?xml version="1.0" encoding="utf-8"?>
<svg xmlns="http://www.w3.org/2000/svg" width="48" height="48" viewBox="0 0 48 48">
  <path d="M 8.023 0.023 C 3.605 0.023 0.023 3.605 0.023 8.023 L 0.023 40.023 C 0.023 44.442 3.605 48.023 8.023 48.023 L 40.023 48.023 C 44.441 48.023 48.023 44.442 48.023 40.023 L 48.023 8.023 C 48.023 3.605 44.441 0.023 40.023 0.023 L 8.023 0.023 Z" style="stroke-width: 1; fill: rgb(235, 143, 50);"/>
  <path d="M 38.367 32.945 L 36.748 31.377 C 35.137 32.607 33.213 33.222 30.975 33.22 C 29.771 33.247 28.576 33.021 27.465 32.558 C 26.532 32.173 25.732 31.524 25.161 30.692 C 24.615 29.853 24.336 28.868 24.361 27.868 C 24.349 26.81 24.657 25.774 25.244 24.894 C 25.913 23.941 26.829 23.187 27.895 22.716 C 27.506 22.259 27.196 21.742 26.975 21.185 C 26.79 20.672 26.7 20.13 26.708 19.585 C 26.7 18.784 26.925 17.997 27.356 17.321 C 27.816 16.619 28.469 16.063 29.236 15.721 C 30.158 15.309 31.16 15.109 32.169 15.134 C 33.176 15.104 34.175 15.318 35.081 15.758 C 35.829 16.126 36.452 16.706 36.873 17.425 C 37.272 18.12 37.463 18.915 37.423 19.716 L 33.423 19.716 C 33.442 19.529 33.423 19.341 33.365 19.163 C 33.307 18.984 33.212 18.82 33.087 18.681 C 32.957 18.555 32.803 18.458 32.634 18.395 C 32.465 18.332 32.285 18.305 32.105 18.316 C 31.741 18.304 31.385 18.429 31.108 18.665 C 30.979 18.775 30.877 18.913 30.808 19.068 C 30.739 19.223 30.706 19.392 30.711 19.561 C 30.723 19.949 30.839 20.327 31.047 20.654 C 31.349 21.139 31.707 21.587 32.113 21.988 L 36.38 26.145 C 36.42 26.043 36.466 25.944 36.516 25.846 C 36.575 25.729 36.636 25.596 36.703 25.446 L 37.593 23.878 L 41.86 23.878 L 40.665 26.044 C 40.224 27.012 39.708 27.944 39.124 28.833 L 43.319 32.945 L 38.367 32.945 Z M 34.135 28.838 L 30.252 25.086 C 29.057 25.7 28.46 26.529 28.46 27.574 C 28.456 27.876 28.519 28.175 28.646 28.449 C 28.773 28.722 28.96 28.964 29.193 29.156 C 29.753 29.602 30.457 29.827 31.172 29.79 C 32.236 29.806 33.276 29.474 34.135 28.844 L 34.135 28.838 Z" fill="white" style="stroke-width: 1;"/>
  <path d="M 6.894 13.826 L 14.905 13.826 Q 17.284 13.826 18.453 14.024 Q 19.622 14.223 20.545 14.851 Q 21.468 15.48 22.083 16.526 Q 22.698 17.572 22.698 18.871 Q 22.698 20.279 21.94 21.455 Q 21.181 22.631 19.882 23.219 Q 21.714 23.752 22.698 25.037 Q 23.683 26.322 23.683 28.058 Q 23.683 29.426 23.047 30.718 Q 22.411 32.01 21.311 32.782 Q 20.21 33.555 18.597 33.732 Q 17.585 33.842 13.716 33.869 L 6.894 33.869 Z M 10.941 17.162 L 10.941 21.797 L 13.593 21.797 Q 15.958 21.797 16.532 21.728 Q 17.572 21.605 18.166 21.011 Q 18.761 20.416 18.761 19.445 Q 18.761 18.515 18.248 17.934 Q 17.736 17.353 16.724 17.23 Q 16.122 17.162 13.265 17.162 Z M 10.941 25.133 L 10.941 30.492 L 14.687 30.492 Q 16.874 30.492 17.462 30.369 Q 18.364 30.205 18.932 29.569 Q 19.499 28.933 19.499 27.867 Q 19.499 26.965 19.062 26.336 Q 18.624 25.707 17.797 25.42 Q 16.97 25.133 14.208 25.133 Z" style="fill: rgb(255, 255, 255); text-wrap-mode: nowrap;"/>
</svg>